<svg id="Icon_-_Accessibility" data-name="Icon - Accessibility" xmlns="http://www.w3.org/2000/svg" width="24" height="24" viewBox="0 0 24 24">
  <rect id="Touch_Target" data-name="Touch Target" width="24" height="24" fill="#002e5d" opacity="0"/>
  <path id="Accessibility" d="M-1289,3903v-5h-5a2.006,2.006,0,0,1-2-2v-5.909a2.039,2.039,0,0,1,1.81-2.071,2,2,0,0,1,1.189.26h.011c.01,0,.01.01.02.01a1.944,1.944,0,0,1,.61.449l1.29,1.43A5.616,5.616,0,0,0-1287,3892v2a8.53,8.53,0,0,1-5-1.949v3.45h3a2.006,2.006,0,0,1,2,2v5.5Zm-12-5a5,5,0,0,1,4-4.9v2.07a3.013,3.013,0,0,0-2,2.83,3,3,0,0,0,3,3,3,3,0,0,0,2.829-2h2.07a5,5,0,0,1-4.9,4,5,5,0,0,1-5-5Zm5-13a2,2,0,0,1,2-2,2,2,0,0,1,2,2,2,2,0,0,1-2,2A2,2,0,0,1-1296,3885Z" transform="translate(1306 -3881)" fill="#002e5d"/>
</svg>
